<svg xmlns="http://www.w3.org/2000/svg" viewBox="0 0 512 512" role="img" aria-label="STall official shield logo">
  <rect width="512" height="512" rx="96" fill="#101820"/>
  <path d="M256 28 438 116 421 318C412 386 349 440 256 484 163 440 100 386 91 318L74 116Z" fill="#080b0e" stroke="#d8a62a" stroke-width="12" stroke-linejoin="round"/>
  <path d="M256 52 414 129 398 314C389 370 333 416 256 454 179 416 123 370 114 314L98 129Z" fill="#101315" stroke="#f0c45a" stroke-width="3" stroke-linejoin="round"/>
  <text x="222" y="305" text-anchor="middle" font-family="Georgia, 'Times New Roman', serif" font-size="226" fill="#f7f4eb">S</text>
  <text x="325" y="319" text-anchor="middle" font-family="Georgia, 'Times New Roman', serif" font-size="211" fill="#e6b438">T</text>
  <path d="M256 365 267 389 291 400 267 411 256 435 245 411 221 400 245 389Z" fill="#e6b438"/>
</svg>
